<svg width="102" height="34" xmlns="http://www.w3.org/2000/svg" xmlns:xlink="http://www.w3.org/1999/xlink"><defs><path id="c" d="M0 .182h6.873v19.246H0z"/><path id="e" d="M.246.182h6.861v13.26H.247z"/><rect id="a" x="0" y="0" width="33.94" height="34" rx="16.97"/></defs><g fill="none" fill-rule="evenodd"><path d="M51.056 7.286c1.818 0 3.335.587 4.553 1.76 1.217 1.175 1.826 2.649 1.826 4.423 0 1.765-.609 3.235-1.826 4.409-1.218 1.173-2.735 1.76-4.553 1.76h-3.835v6.353h-3.078V7.286h6.913Zm-.143 9.444c.991 0 1.806-.31 2.446-.926.639-.618.958-1.396.958-2.335 0-.94-.32-1.718-.958-2.335-.64-.618-1.455-.926-2.446-.926H47.22v6.522h3.692Zm20.1-5.179 2.282.013v14.414h-2.387l-.287-1.748c-.66.67-1.439 1.19-2.335 1.559a7.517 7.517 0 0 1-2.896.554c-1.408 0-2.687-.328-3.834-.985a7.073 7.073 0 0 1-2.7-2.726c-.653-1.16-.979-2.45-.979-3.867 0-1.427.326-2.716.978-3.868a7.052 7.052 0 0 1 2.7-2.707c1.148-.652 2.427-.978 3.835-.978 1.044 0 2.018.187 2.922.56a6.85 6.85 0 0 1 2.348 1.592l.352-1.813Zm-8.78 10.605c.897.896 2.023 1.344 3.38 1.344 1.356 0 2.48-.45 3.371-1.35.891-.9 1.337-2.029 1.337-3.385 0-1.357-.446-2.483-1.337-3.379-.891-.896-2.015-1.343-3.372-1.343-1.356 0-2.482.45-3.378 1.35-.896.9-1.344 2.024-1.344 3.372 0 1.356.448 2.487 1.344 3.391Zm21.835-10.944c1.418 0 2.696.326 3.835.978a6.928 6.928 0 0 1 2.668 2.713c.64 1.157.959 2.448.959 3.875 0 2.165-.707 3.97-2.12 5.413-1.413 1.443-3.194 2.165-5.342 2.165-1.852 0-3.452-.582-4.8-1.748v6.548h-2.96V11.564h1.995l.56 1.774a6.908 6.908 0 0 1 2.33-1.572 7.434 7.434 0 0 1 2.875-.554Zm-3.626 10.944c.905.904 2.035 1.357 3.392 1.357 1.356 0 2.478-.45 3.365-1.35.887-.9 1.33-2.029 1.33-3.385 0-1.357-.443-2.485-1.33-3.385-.887-.9-2.009-1.35-3.365-1.35-1.357 0-2.485.452-3.385 1.356-.9.905-1.35 2.03-1.35 3.379 0 1.347.447 2.474 1.343 3.378Zm19.983-10.67h1.278v2.804h-1.565c-1.218 0-2.135.34-2.753 1.018-.617.678-.926 1.674-.926 2.987v7.696H93.5V11.564h2.008l.496 1.97c1.026-1.365 2.5-2.048 4.422-2.048Z" fill="#121213" fill-rule="nonzero"/><mask id="b" fill="#fff"><use xlink:href="#a"/></mask><use fill="#FF1D50" xlink:href="#a"/><g mask="url(#b)"><g transform="translate(10.929 8.318)"><mask id="d" fill="#fff"><use xlink:href="#c"/></mask><path d="M6.873.182v12.616c0 .219-.012.425-.036.644C6.509 16.793 3.57 19.428 0 19.428V6.812c0-.219.012-.437.037-.644C.364 2.817 3.303.182 6.873.182" fill="#FFF" mask="url(#d)"/></g><g transform="translate(18.214 8.318)"><mask id="f" fill="#fff"><use xlink:href="#e"/></mask><path d="M7.107 6.812c0 3.667-3.072 6.63-6.86 6.63V.182c3.788 0 6.86 2.975 6.86 6.63" fill="#FFF" opacity=".6" mask="url(#f)"/></g></g></g></svg>