<svg xmlns="http://www.w3.org/2000/svg" version="1.1" xmlns:xlink="http://www.w3.org/1999/xlink" xmlns:svgjs="http://svgjs.dev/svgjs" width="1000" height="623" viewBox="0 0 1000 623"><g transform="matrix(1,0,0,1,-0.6060606060606233,0.2522267206477409)"><svg viewBox="0 0 396 247" data-background-color="#ffffff" preserveAspectRatio="xMidYMid meet" height="623" width="1000" xmlns="http://www.w3.org/2000/svg" xmlns:xlink="http://www.w3.org/1999/xlink"><g id="tight-bounds" transform="matrix(1,0,0,1,0.2400000000000091,-0.09999999999999432)"><svg viewBox="0 0 395.52 247.2" height="247.2" width="395.52"><g><svg viewBox="0 0 395.52 247.2" height="247.2" width="395.52"><g transform="matrix(1,0,0,1,0,46.9530516107568)"><svg viewBox="0 0 395.52 153.29389677848638" height="153.29389677848638" width="395.52"><g><svg viewBox="0 0 395.52 153.29389677848638" height="153.29389677848638" width="395.52"><g><svg viewBox="0 0 395.52 153.29389677848638" height="153.29389677848638" width="395.52"><g><svg viewBox="0 0 395.52 153.29389677848638" height="153.29389677848638" width="395.52"><g id="textblocktransform"><svg viewBox="0 0 395.52 153.29389677848638" height="153.29389677848638" width="395.52" id="textblock"><g><svg viewBox="0 0 395.52 88.92661278471711" height="88.92661278471711" width="395.52"><g transform="matrix(1,0,0,1,0,0)"><svg width="395.52" viewBox="-1.4500000476837158 -41.25 205.13999938964844 46.900001525878906" height="88.92661278471711" data-palette-color="#ed3b43"><path d="M2.55-31.5L2.55-36.15 26.55-36.15 26.55-31.5 16.85-31.5 16.85 0 12 0 12-31.5 2.55-31.5ZM31.1-36.15L36.85-36.15 48.75-6.25 46-6.8 57.3-36.15 62.95-36.15 47 1.65 31.1-36.15ZM117.44 1.15L117.29 1.15 89.34-27.2 90.74-26.85 90.84 0 85.99 0 85.99-37.25 86.24-37.25 113.89-8.8 112.74-9.05 112.64-36.15 117.44-36.15 117.44 1.15ZM136.29 0.5L136.29 0.5Q132.74 0.5 130.19-0.93 127.64-2.35 126.27-4.83 124.89-7.3 124.89-10.5L124.89-10.5Q124.89-13.55 126.44-16.05 127.99-18.55 130.59-20.05 133.19-21.55 136.39-21.55L136.39-21.55Q140.49-21.55 143.19-19.15 145.89-16.75 146.84-12.55L146.84-12.55 129.79-6.55 128.69-9.3 142.69-14.4 141.69-13.75Q141.09-15.4 139.69-16.63 138.29-17.85 136.04-17.85L136.04-17.85Q134.14-17.85 132.64-16.93 131.14-16 130.29-14.4 129.44-12.8 129.44-10.75L129.44-10.75Q129.44-8.6 130.34-6.98 131.24-5.35 132.82-4.42 134.39-3.5 136.39-3.5L136.39-3.5Q137.74-3.5 139.02-4 140.29-4.5 141.39-5.3L141.39-5.3 143.54-1.85Q141.99-0.8 140.07-0.15 138.14 0.5 136.29 0.5ZM161.39-20.7L165.39-20.7 171.49-6.75 170.59-6.65 176.29-20.7 180.84-20.7 171.34 1.25 164.69-12.95 158.64 1.25 149.04-20.7 153.59-20.7 160.04-6.1 158.44-6.4 163.04-17.1 161.39-20.7ZM191.64 0.4L191.64 0.4Q189.44 0.4 187.36-0.38 185.29-1.15 183.94-2.7L183.94-2.7 185.89-5.4Q187.19-4.15 188.56-3.53 189.94-2.9 191.29-2.9L191.29-2.9Q192.29-2.9 193.14-3.15 193.99-3.4 194.51-3.98 195.04-4.55 195.04-5.55L195.04-5.55Q195.04-6.65 194.31-7.3 193.59-7.95 192.46-8.35 191.34-8.75 190.09-9.1L190.09-9.1Q187.54-9.95 186.19-11.45 184.84-12.95 184.84-15.1L184.84-15.1Q184.84-16.75 185.66-18.18 186.49-19.6 188.11-20.5 189.74-21.4 192.14-21.4L192.14-21.4Q194.29-21.4 195.99-20.88 197.69-20.35 199.19-19.15L199.19-19.15 197.34-16.25Q196.44-17.2 195.19-17.65 193.94-18.1 192.94-18.15L192.94-18.15Q192.09-18.2 191.31-17.9 190.54-17.6 190.04-17.05 189.54-16.5 189.54-15.75L189.54-15.75Q189.54-14.7 190.24-14.05 190.94-13.4 192.06-13.03 193.19-12.65 194.29-12.25L194.29-12.25Q195.84-11.8 197.04-11.05 198.24-10.3 198.96-9.2 199.69-8.1 199.69-6.45L199.69-6.45Q199.69-4.6 198.81-3.03 197.94-1.45 196.16-0.53 194.39 0.4 191.64 0.4Z" opacity="1" transform="matrix(1,0,0,1,0,0)" fill="#ed3b43" class="undefined-text-0" data-fill-palette-color="primary" id="text-0"></path></svg></g></svg></g><g transform="matrix(1,0,0,1,3.5,106.71843802756796)"><svg viewBox="0 0 388.52 46.575458750918436" height="46.575458750918436" width="388.52"><g transform="matrix(1,0,0,1,0,0)"><svg width="388.52" viewBox="-0.75 -42.9900016784668 485.7099914550781 58.787681579589844" height="46.575458750918436" data-palette-color="#71cdf6"><path d="M11.4-33.69L11.4-33.69 11.4-19.95 23.75-20.68 24-20.36 22.85-18.36Q21.88-18.41 20.83-18.43 19.78-18.46 18.63-18.46L18.63-18.46Q16.97-18.46 15.17-18.41 13.38-18.36 11.4-18.26L11.4-18.26 11.4-4.39Q11.4-3.39 11.58-2.69 11.77-1.98 12.21-1.49 12.65-1 13.39-0.7 14.14-0.39 15.26-0.2L15.26-0.2 15.04 0.39Q13.55 0.2 12.48 0.1 11.4 0 10.72 0 10.03 0 9.18 0.1 8.33 0.2 7.3 0.39L7.3 0.39 7.15 0.15Q7.64-0.56 7.64-2.44L7.64-2.44 7.64-28.34Q7.64-29.96 7.5-30.99 7.35-32.03 6.96-32.65 6.57-33.28 5.87-33.52 5.18-33.76 4.08-33.76L4.08-33.76Q3.91-33.76 3.72-33.76 3.54-33.76 3.34-33.74L3.34-33.74 3.25-34.45Q10.21-35.55 18.58-35.55L18.58-35.55Q22.85-35.55 27.54-35.25L27.54-35.25 27.71-34.84 25.39-28.76 24.61-29Q24.8-29.93 24.9-30.71 25-31.49 25-32.24 25-32.98 24.8-33.64L24.8-33.64Q22.97-33.81 21.2-33.9 19.43-33.98 17.68-33.98L17.68-33.98Q14.48-33.98 11.4-33.69ZM55.04-2.44L55.04-18.09Q55.04-21.56 54.22-22.74 53.41-23.93 50.75-23.75L50.75-23.75 50.65-24.19Q54.68-25.39 58.05-25.39L58.05-25.39Q58.56-24.12 58.56-22.61L58.56-22.61 58.56-4.39Q58.56-2.47 59.46-1.54 60.36-0.61 62.66-0.2L62.66-0.2 62.46 0.39Q59.66 0 58.13 0 56.61 0 54.7 0.39L54.7 0.39 54.55 0.15Q55.04-0.56 55.04-2.44L55.04-2.44ZM52.55-34.45L52.55-34.45Q54.87-35.79 57.8-36.69L57.8-36.69Q57.8-34.67 58.46-32.69L58.46-32.69 58.14-32.25Q55.82-32.1 53.31-30.96L53.31-30.96Q52.7-32.64 52.55-34.45ZM92.26-22.61L92.26-6.74Q92.26-3.42 93-2.16 93.73-0.9 95.36-0.9L95.36-0.9Q97.15-0.9 99.71-2.25L99.71-2.25 100.47-1.2Q96.44 1 93.87 1L93.87 1Q92.51 1 91.65 0.76 90.8 0.51 90.09-0.2 89.38-0.9 89.08-2.28 88.77-3.66 88.77-5.86L88.77-5.86 88.77-22.41 85.11-22.19 85.11-23.75Q87.04-24.17 88.77-24.29L88.77-24.29 88.77-27.76Q90.85-28.93 92.17-31.1L92.17-31.1 92.92-30.81Q92.51-29.83 92.39-28.6 92.26-27.37 92.26-24.44L92.26-24.44 100.66-24.44 100.66-23.58Q99.64-23.17 98.59-22.89 97.54-22.61 96.41-22.61L96.41-22.61 92.26-22.61ZM140.18-5.69L140.18-5.69Q140.18-3.93 139.47-2.66 138.76-1.39 137.58-0.57 136.39 0.24 134.82 0.62 133.24 1 131.51 1L131.51 1Q127.31 1 123.62-0.76L123.62-0.76Q124.09-2.37 124.55-3.75 125.02-5.13 125.5-6.3L125.5-6.3 126.21-6.05Q125.99-4.98 125.99-3.99 125.99-3 126.07-2.2L126.07-2.2Q126.82-1.81 127.48-1.53 128.14-1.25 128.8-1.06 129.46-0.88 130.22-0.79 130.97-0.71 131.97-0.71L131.97-0.71Q133.46-0.71 134.44-0.9 135.42-1.1 135.97-1.57 136.51-2.05 136.73-2.84 136.95-3.64 136.95-4.81L136.95-4.81Q136.95-5.71 136.65-6.51 136.34-7.3 135.6-8.08 134.85-8.86 133.62-9.7 132.39-10.55 130.56-11.55L130.56-11.55Q127.6-13.31 126.09-15.05 124.58-16.8 124.58-18.8L124.58-18.8Q124.58-20.39 125.24-21.62 125.89-22.85 127.03-23.69 128.17-24.54 129.68-24.96 131.19-25.39 132.88-25.39L132.88-25.39Q133.73-25.39 134.67-25.27 135.61-25.15 136.49-24.91 137.37-24.68 138.14-24.35 138.91-24.02 139.47-23.61L139.47-23.61Q138.69-20.41 137.56-17.99L137.56-17.99 136.86-18.26Q136.91-18.97 136.93-20.01 136.95-21.04 136.95-22.46L136.95-22.46Q135.37-23.71 132.56-23.71L132.56-23.71Q131.17-23.71 130.2-23.54 129.24-23.36 128.65-22.95 128.07-22.53 127.81-21.81 127.55-21.09 127.55-20L127.55-20Q127.55-19.19 127.77-18.49 127.99-17.8 128.56-17.13 129.12-16.46 130.08-15.76 131.05-15.06 132.56-14.26L132.56-14.26Q134.93-12.96 136.4-11.99 137.88-11.01 138.72-10.07 139.57-9.13 139.87-8.11 140.18-7.08 140.18-5.69ZM218.82-25.15L219.11-24.66 208.71 2.29Q208.05 4.03 207.57 5.15 207.1 6.27 206.46 7.48 205.83 8.69 205.23 9.45 204.63 10.21 203.84 10.83 203.05 11.45 202.12 11.79L202.12 11.79Q198.24 11.94 195.31 9.16L195.31 9.16Q196.62 7.54 198.97 6.4L198.97 6.4 199.26 6.69Q200.24 8.96 202.41 9.96L202.41 9.96Q203.46 9.11 204.57 7.14 205.68 5.18 207.32 0.76L207.32 0.76 198.63-19.8Q197.94-21.53 197.1-22.29 196.26-23.05 195.37-23.02 194.48-23 193.33-22.85L193.33-22.85 193.06-23.34Q197.16-25.39 200.26-25.39L200.26-25.39 207.61-7.5Q208.1-6.32 208.76-3L208.76-3 209.17-3Q210.35-6.88 210.37-6.96L210.37-6.96 215.81-22.56Q216.13-23.44 215.08-23.82 214.03-24.19 211.91-24L211.91-24 211.76-24.61Q213.84-25.02 218.82-25.15L218.82-25.15ZM252.77-25.39L252.77-25.39Q258.38-25.39 261.58-21.95 264.78-18.51 264.78-12.35L264.78-12.35Q264.78-8.79 263.14-5.71 261.51-2.64 258.7-0.82 255.89 1 252.62 1L252.62 1Q246.98 1 243.79-2.4 240.61-5.81 240.61-12.06L240.61-12.06Q240.61-15.77 242.24-18.84 243.88-21.9 246.67-23.65 249.47-25.39 252.77-25.39ZM252.28-23.71L252.28-23.71Q250.35-23.71 248.93-23.14 247.52-22.58 246.66-21.63 245.81-20.68 245.3-19.21 244.78-17.75 244.6-16.21 244.42-14.67 244.42-12.65L244.42-12.65Q244.42-9.42 245.19-7.02 245.95-4.61 247.25-3.28 248.54-1.95 250.01-1.33 251.47-0.71 253.11-0.71L253.11-0.71Q255.01-0.71 256.44-1.31 257.87-1.9 258.72-2.87 259.58-3.83 260.09-5.31 260.6-6.79 260.79-8.3 260.97-9.81 260.97-11.74L260.97-11.74Q260.97-14.45 260.46-16.58 259.94-18.7 259.1-20.02 258.26-21.34 257.1-22.19 255.94-23.05 254.77-23.38 253.6-23.71 252.28-23.71ZM311.57-22.19L311.57-6.81Q311.57-5.18 311.73-4.09 311.89-3 312.29-2.34 312.69-1.68 313.4-1.4 314.11-1.12 314.89-1.12 315.67-1.12 315.87-1.15L315.87-1.15 315.99-0.71Q311.96 0.49 308.57 0.49L308.57 0.49Q308.08-0.83 308.08-2.29L308.08-2.29 308.08-3.44Q306.78-2.29 305.67-1.46 304.56-0.63 303.49-0.09 302.41 0.46 301.29 0.73 300.17 1 298.87 1L298.87 1Q297.41 1 295.96 0.66 294.5 0.32 293.33-0.56 292.16-1.44 291.44-2.95 290.72-4.47 290.72-6.81L290.72-6.81 290.72-21.9Q290.72-22.88 289.9-23.39 289.08-23.9 287.47-24.34L287.47-24.34 287.67-24.95Q289.08-24.66 291.33-24.66L291.33-24.66Q292.72-24.66 294.58-25.05L294.58-25.05 294.72-24.8Q294.23-24.05 294.23-22.19L294.23-22.19 294.23-7.69Q294.23-5.66 294.7-4.36 295.16-3.05 295.94-2.29 296.72-1.54 297.77-1.26 298.82-0.98 300-0.98L300-0.98Q301.09-0.98 302.03-1.21 302.97-1.44 303.93-1.94 304.88-2.44 305.88-3.23 306.88-4.03 308.08-5.15L308.08-5.15 308.08-21.29Q308.08-22.05 307.94-22.52 307.81-23 307.43-23.33 307.05-23.66 306.34-23.9 305.64-24.15 304.49-24.44L304.49-24.44 304.68-25.05Q306.08-24.85 307.08-24.76 308.08-24.66 308.69-24.66L308.69-24.66Q310.08-24.66 311.93-25.05L311.93-25.05 312.08-24.8Q311.57-24.07 311.57-22.19L311.57-22.19ZM378.29-36.21L378.29-21.19Q380.44-23.39 382.62-24.39 384.79-25.39 387.4-25.39L387.4-25.39Q389.6-25.39 391.44-24.38 393.28-23.36 394.48-21.7 395.68-20.04 396.34-17.96 397-15.87 397-13.65L397-13.65Q397-7.1 393.54-3.31 390.09 0.49 383.54 0.49L383.54 0.49Q380.93 0.49 378.44 0.05L378.44 0.05 378.39 0.05Q375.98 0.05 374.49 0.56L374.49 0.56 374.29 0.15Q374.61-0.32 374.69-0.89 374.78-1.46 374.78-2.95L374.78-2.95 374.78-31.69Q374.78-34.91 374.08-36.13 373.39-37.35 371.19-37.35L371.19-37.35 370.48-37.35 370.38-37.79Q374.41-38.99 377.78-38.99L377.78-38.99Q378.29-37.72 378.29-36.21L378.29-36.21ZM378.29-19.24L378.29-19.24 378.29-2.81Q379.47-2.17 381.41-1.76 383.35-1.34 385.3-1.34L385.3-1.34Q387.21-1.34 388.61-1.87 390.01-2.39 390.87-3.28 391.72-4.17 392.25-5.62 392.77-7.06 392.96-8.64 393.14-10.23 393.14-12.35L393.14-12.35Q393.14-17.92 391.26-20.79 389.38-23.66 386.28-23.66L386.28-23.66Q384.35-23.66 382.26-22.52 380.17-21.39 378.29-19.24ZM420.93-11.89L420.93-11.89Q420.93-14.48 421.79-16.91 422.64-19.34 424.23-21.23 425.82-23.12 428.08-24.26 430.33-25.39 433.14-25.39L433.14-25.39Q434.9-25.39 436.46-24.79 438.02-24.19 439.18-22.94 440.34-21.68 441.02-19.71 441.69-17.75 441.69-15.04L441.69-15.04 440.73-14.16 424.79-14.16Q424.74-13.75 424.74-13.35 424.74-12.96 424.74-12.57L424.74-12.57Q424.74-9.91 425.37-7.74 425.99-5.57 427.05-4.02 428.11-2.47 429.55-1.61 430.99-0.76 432.6-0.76L432.6-0.76Q433.63-0.76 434.69-0.92 435.75-1.07 436.77-1.42 437.78-1.76 438.73-2.29 439.68-2.83 440.49-3.59L440.49-3.59 441.49-2.54Q439.56-0.63 437.29 0.18 435.02 1 432.04 1L432.04 1Q429.7 1 427.66 0.1 425.62-0.81 424.13-2.49 422.64-4.17 421.79-6.56 420.93-8.94 420.93-11.89ZM432.6-23.71L432.6-23.71Q428.82-23.71 427.06-21.74 425.31-19.78 424.94-16.09L424.94-16.09 438.54-16.09Q438.34-20.09 436.74-21.9 435.14-23.71 432.6-23.71ZM472.56-22.61L472.56-6.74Q472.56-3.42 473.29-2.16 474.02-0.9 475.66-0.9L475.66-0.9Q477.44-0.9 480.01-2.25L480.01-2.25 480.76-1.2Q476.73 1 474.17 1L474.17 1Q472.8 1 471.95 0.76 471.09 0.51 470.39-0.2 469.68-0.9 469.37-2.28 469.07-3.66 469.07-5.86L469.07-5.86 469.07-22.41 465.41-22.19 465.41-23.75Q467.34-24.17 469.07-24.29L469.07-24.29 469.07-27.76Q471.14-28.93 472.46-31.1L472.46-31.1 473.22-30.81Q472.8-29.83 472.68-28.6 472.56-27.37 472.56-24.44L472.56-24.44 480.96-24.44 480.96-23.58Q479.93-23.17 478.88-22.89 477.83-22.61 476.71-22.61L476.71-22.61 472.56-22.61Z" opacity="1" transform="matrix(1,0,0,1,0,0)" fill="#71cdf6" class="undefined-text-1" data-fill-palette-color="secondary" id="text-1"></path></svg></g></svg></g></svg></g></svg></g><g></g></svg></g></svg></g></svg></g></svg></g><defs></defs></svg><rect width="395.52" height="247.2" fill="none" stroke="none" visibility="hidden"></rect></g></svg></g></svg>