<svg width="86" height="28" xmlns="http://www.w3.org/2000/svg" xmlns:xlink="http://www.w3.org/1999/xlink"><defs><path id="c" d="M0 .15h5.66V16H0z"/><path id="e" d="M.203.15h5.65v10.92H.203z"/><rect id="a" x="0" y="0" width="27.951" height="28" rx="13.975"/></defs><g fill="none" fill-rule="evenodd"><path d="M43.693 6c1.497 0 2.747.483 3.75 1.45 1.002.967 1.503 2.18 1.503 3.642 0 1.454-.501 2.664-1.504 3.63-1.002.967-2.252 1.45-3.749 1.45h-3.158v5.232H38V6h5.693Zm-.118 7.777c.817 0 1.488-.254 2.014-.762.527-.509.79-1.15.79-1.923 0-.774-.263-1.415-.79-1.923-.526-.509-1.197-.763-2.014-.763h-3.04v5.371h3.04Zm16.553-4.264 1.88.01v11.87h-1.966l-.236-1.439a5.754 5.754 0 0 1-1.923 1.284 6.19 6.19 0 0 1-2.385.456c-1.16 0-2.213-.27-3.158-.81a5.825 5.825 0 0 1-2.224-2.246c-.537-.956-.805-2.018-.805-3.185 0-1.174.268-2.236.805-3.185a5.808 5.808 0 0 1 2.224-2.229c.945-.537 1.998-.806 3.158-.806.86 0 1.662.154 2.406.462.745.308 1.39.745 1.934 1.31l.29-1.492Zm-7.23 8.733c.738.738 1.665 1.107 2.783 1.107 1.117 0 2.042-.371 2.777-1.112.734-.741 1.1-1.67 1.1-2.788 0-1.117-.366-2.044-1.1-2.782-.735-.738-1.66-1.107-2.777-1.107-1.118 0-2.045.371-2.783 1.112-.737.741-1.106 1.667-1.106 2.777 0 1.117.369 2.048 1.106 2.793ZM70.88 9.233c1.167 0 2.22.269 3.158.806a5.706 5.706 0 0 1 2.197 2.234c.526.953.79 2.016.79 3.19 0 1.784-.582 3.27-1.746 4.459-1.164 1.189-2.63 1.783-4.4 1.783-1.525 0-2.842-.48-3.952-1.44v5.393h-2.439V9.523h1.644l.462 1.461A5.69 5.69 0 0 1 68.51 9.69a6.122 6.122 0 0 1 2.369-.457Zm-2.986 9.013c.744.745 1.675 1.117 2.793 1.117 1.117 0 2.04-.37 2.771-1.112.73-.74 1.096-1.67 1.096-2.787s-.366-2.047-1.096-2.788c-.73-.74-1.654-1.112-2.771-1.112-1.118 0-2.047.373-2.788 1.118-.741.744-1.112 1.672-1.112 2.782s.369 2.037 1.107 2.782ZM84.35 9.46h1.052v2.31h-1.289c-1.002 0-1.758.279-2.266.837-.509.559-.763 1.379-.763 2.46v6.338h-2.438V9.524H80.3l.408 1.622c.845-1.125 2.059-1.687 3.642-1.687Z" fill="#FFF" fill-rule="nonzero"/><mask id="b" fill="#fff"><use xlink:href="#a"/></mask><use fill="#FF1D50" xlink:href="#a"/><g mask="url(#b)"><g transform="translate(9 6.85)"><mask id="d" fill="#fff"><use xlink:href="#c"/></mask><path d="M5.66.15v10.39c0 .18-.01.35-.03.53C5.36 13.83 2.94 16 0 16V5.61c0-.18.01-.36.03-.53C.3 2.32 2.72.15 5.66.15" fill="#FFF" mask="url(#d)"/></g><g transform="translate(15 6.85)"><mask id="f" fill="#fff"><use xlink:href="#e"/></mask><path d="M5.853 5.61c0 3.02-2.53 5.46-5.65 5.46V.15c3.12 0 5.65 2.45 5.65 5.46" fill="#FFF" opacity=".6" mask="url(#f)"/></g></g></g></svg>